PathFileType  4	(X/Y/Z) C:\Users\antoi\Documents\MyRepositories\mobilecap\ResultsAnalysis
DataRate	CameraRate	NumFrames	NumMarkers	Units	OrigDataRate	OrigDataStartFrame	OrigNumFrames
100.0	100.0	4	51	mm	100.0	151	240
Frame#	Time	r_knee			r_shank_antsup			r_ankle			r_calc			r_5meta			r_toe			L_knee			L_shank_antsup			L_ankle			L_calc			L_5meta			L_toe			r_sh2			r_sh3			r_sh4			L_sh2			L_sh3			r_thigh1			r_thigh2			r_thigh3			r_thigh4			r_thigh5			L_thigh1			L_thigh2			L_thigh3			L_thigh4			r.ASIS			r.PSIS			L.ASIS			L.PSIS			C7			R_Shoulder			L_Shoulder			R_Sternum			L_Sternum			R_humerus			R_elbow_med			R_elbow_lat			R_forearm			R_wrist_radius			R_wrist_ulna			L_humerus			L_elbow_med			L_elbow_lat			L_forearm			L_wrist_radius			L_wrist_ulna			R_HJC			L_HJC			R_HJC_reg			L_HJC_reg			
		X1	Y1	Z1	X2	Y2	Z2	X3	Y3	Z3	X4	Y4	Z4	X5	Y5	Z5	X6	Y6	Z6	X7	Y7	Z7	X8	Y8	Z8	X9	Y9	Z9	X10	Y10	Z10	X11	Y11	Z11	X12	Y12	Z12	X13	Y13	Z13	X14	Y14	Z14	X15	Y15	Z15	X16	Y16	Z16	X17	Y17	Z17	X18	Y18	Z18	X19	Y19	Z19	X20	Y20	Z20	X21	Y21	Z21	X22	Y22	Z22	X23	Y23	Z23	X24	Y24	Z24	X25	Y25	Z25	X26	Y26	Z26	X27	Y27	Z27	X28	Y28	Z28	X29	Y29	Z29	X30	Y30	Z30	X31	Y31	Z31	X32	Y32	Z32	X33	Y33	Z33	X34	Y34	Z34	X35	Y35	Z35	X36	Y36	Z36	X37	Y37	Z37	X38	Y38	Z38	X39	Y39	Z39	X40	Y40	Z40	X41	Y41	Z41	X42	Y42	Z42	X43	Y43	Z43	X44	Y44	Z44	X45	Y45	Z45	X46	Y46	Z46	X47	Y47	Z47	X48	Y48	Z48	X49	Y49	Z49	X50	Y50	Z50	X51	Y51	Z51	

151	1.50000000	-74.87936	443.75173	-375.72584	-36.84721	362.16146	-381.43188	-258.31847	106.11104	-362.04098	-342.63219	74.56647	-397.22038	-176.67245	46.48038	-316.98277	-119.67800	67.07335	-368.28205	-58.38651	418.82336	-812.30013	-42.59056	324.45422	-827.26202	-276.29616	117.95020	-844.60870	-363.14556	86.80535	-804.77668	-196.90323	43.98680	-889.79161	-151.43048	59.12411	-835.03835	-110.13508	275.47800	-354.05446	-98.19929	412.85797	-356.77333	-168.13833	322.69625	-345.41481	-109.23664	383.33308	-832.29480	-181.39394	285.52561	-853.16409	-312.16909	649.13784	-422.76724	-219.37556	592.67689	-407.34170	-270.69477	496.94836	-387.13565	-372.69070	554.29962	-402.88396	-231.85993	535.85607	-371.02319	-270.91325	583.16269	-831.90012	-146.61248	524.19173	-821.51131	-321.45809	482.36936	-798.06904	-190.88333	426.54642	-801.98640	-322.82578	668.10370	-486.82686	-484.42203	750.11834	-578.51665	-302.32702	648.17407	-731.76422	-479.11690	751.93598	-676.95938	-217.56218	1078.88397	-570.26422	-127.76191	977.75606	-415.94035	-121.46447	1034.01750	-740.24368	-107.56955	979.08077	-550.04132	-104.02309	985.05962	-586.11742	-103.96471	855.62803	-367.54639	-80.41028	647.65861	-448.13109	-60.91260	656.97715	-374.98094	76.70699	679.90546	-393.01712	198.61013	690.12832	-423.69726	208.78606	656.19158	-418.31416	-122.44012	945.43143	-828.66490	-190.69693	718.74093	-870.73356	-159.74550	768.26279	-930.89218	-56.02930	737.35416	-885.74293	68.74409	676.72543	-847.51022	71.19359	663.22944	-877.70155	-414.05530	609.62004	-512.01249	-398.50450	600.02221	-717.67208	-404.94129	604.68883	-526.43779	-396.18292	607.68937	-688.93218	
152	1.51000000	-72.73625	442.79654	-374.15970	-35.08694	360.43551	-379.68827	-258.33174	105.88887	-361.61435	-342.64467	74.35963	-397.04720	-176.69890	46.33971	-316.64118	-119.71585	66.94711	-368.09228	-56.91304	420.69742	-815.32983	-40.75147	325.59665	-830.31855	-275.02599	119.36134	-844.22111	-361.83952	89.50591	-803.89694	-196.61909	44.42466	-889.77584	-150.71398	59.13048	-835.30882	-109.08851	274.17235	-352.87599	-96.30060	412.14242	-354.82009	-166.96140	321.70985	-344.59376	-107.27830	384.61117	-834.47906	-180.01752	287.12569	-854.18988	-310.64812	647.25344	-421.48755	-217.69458	590.89880	-406.35096	-268.76491	495.39373	-385.23520	-370.77500	552.65422	-400.45042	-228.90703	532.90638	-372.31302	-272.42155	581.28753	-832.28720	-147.19506	524.40094	-823.49121	-321.08486	479.61730	-798.14639	-189.68369	425.99679	-803.38227	-319.20981	664.31803	-487.15222	-480.00432	748.97818	-576.82009	-301.51080	643.29664	-731.73307	-475.79518	750.39831	-675.36343	-209.27166	1071.84191	-572.30893	-118.55814	970.93503	-419.09388	-113.48295	1024.78335	-742.41718	-100.42481	969.94280	-552.13059	-97.07452	976.30866	-588.06802	-93.81460	850.68224	-369.01114	-68.35118	642.53595	-447.57018	-48.50735	652.50747	-374.36973	88.24617	678.42556	-393.86073	209.52815	691.89743	-426.03971	220.73141	658.21362	-420.75057	-114.97047	937.05260	-831.02639	-177.35956	709.80334	-868.81373	-150.33300	759.02200	-932.68941	-46.45053	730.82539	-886.39666	79.39387	672.79518	-846.18762	82.17898	659.35283	-876.23998	-411.59237	607.37946	-510.82889	-398.46801	596.97656	-716.62093	-402.66931	602.50239	-525.51582	-395.74211	604.83981	-687.78736	
153	1.52000000	-70.55268	441.12193	-372.94109	-33.01493	358.23645	-377.71054	-258.42265	105.49039	-361.07614	-342.74531	73.96401	-396.62509	-176.74100	46.22287	-316.13500	-119.81289	66.90281	-367.86533	-56.02612	421.33693	-818.05793	-39.69396	325.76044	-833.36754	-274.55750	119.86045	-843.65383	-361.15207	90.37527	-802.55388	-196.70763	44.57448	-889.49769	-150.39748	59.05545	-835.43553	-107.67747	272.41099	-351.46739	-94.16319	411.05027	-352.50750	-165.55940	320.26951	-343.42738	-106.25345	384.77065	-836.62338	-179.48207	287.25653	-854.80073	-309.10886	645.38302	-420.03112	-215.74575	589.33603	-405.18199	-267.02837	493.63168	-383.75397	-368.92099	550.93643	-398.91253	-226.55636	530.42847	-372.61417	-273.50778	579.48773	-832.69758	-147.59043	523.84991	-825.21667	-320.75303	477.16586	-798.25109	-188.89153	425.15858	-804.91259	-315.40292	661.13043	-486.90625	-475.58270	747.91888	-575.34451	-300.32951	639.43831	-731.92469	-472.44389	749.04468	-674.01543	-201.76355	1065.76295	-574.57537	-109.93457	964.83297	-422.16576	-106.66878	1015.91894	-744.47723	-93.76560	961.54458	-554.27075	-90.75294	968.31929	-590.20451	-84.81370	846.21971	-369.99527	-56.83427	637.91007	-446.21873	-36.88106	648.75539	-373.01937	98.92971	677.97993	-394.29426	219.26692	694.86654	-427.86167	231.58487	661.51441	-422.72090	-107.78152	929.13369	-833.23852	-166.01919	701.64610	-870.11127	-140.77342	750.87356	-935.20135	-37.00999	725.69339	-887.47927	90.02570	670.59070	-845.02060	94.17567	657.69873	-875.48009	-408.74197	605.47443	-509.76080	-397.74234	594.50559	-715.64614	-400.02832	600.49685	-524.23944	-394.85795	602.35220	-686.79593	
154	1.53000000	-68.21086	438.98926	-372.11579	-30.57145	355.94475	-376.38379	-258.38076	105.16345	-360.77253	-342.83885	73.68041	-396.38837	-176.78123	46.17577	-315.79010	-119.87564	66.89055	-367.70790	-55.75163	420.25027	-820.40310	-39.58204	324.56318	-836.07374	-274.94433	119.43532	-842.86272	-361.25369	89.30602	-800.82185	-197.25160	44.43332	-889.12497	-150.58984	58.92497	-835.32077	-105.75643	270.32607	-350.82904	-91.55529	409.12047	-351.16336	-163.65237	318.90204	-342.38350	-106.13474	383.68287	-838.58254	-179.79381	285.88572	-855.11091	-306.94373	643.50286	-418.73906	-213.26616	587.78383	-404.09425	-264.93362	491.80679	-382.74950	-366.82223	549.06416	-397.96190	-224.47976	528.63956	-371.51061	-273.98086	577.65210	-832.99617	-147.83313	522.29239	-826.65487	-320.44808	475.20072	-798.39687	-188.57962	423.68546	-806.52685	-311.26560	658.38835	-486.47102	-471.26895	746.86599	-574.09249	-298.61465	636.26288	-731.96631	-469.04654	747.72305	-672.86873	-195.09694	1060.78263	-576.97294	-102.09721	959.57714	-425.06644	-101.20820	1007.99251	-746.74066	-87.37320	954.80665	-557.02645	-84.53452	961.44905	-592.87082	-76.92278	842.32350	-370.65259	-45.84579	633.73456	-443.87042	-25.98404	645.85378	-371.23066	108.79520	678.79707	-394.15428	227.93686	699.14690	-429.08834	241.46097	666.24531	-424.34061	-101.15502	921.97442	-835.42469	-156.71970	693.38467	-875.04608	-130.76697	744.13753	-938.25696	-27.23891	722.15094	-888.97284	100.80918	670.26588	-844.12717	107.06019	658.17531	-875.41622	-405.48383	603.78167	-508.75376	-396.29032	592.34672	-714.70173	-396.93602	598.72560	-522.93556	-393.26918	600.13940	-685.78850	
